<svg width="44" height="44" viewBox="0 0 44 44" fill="none" xmlns="http://www.w3.org/2000/svg">
<path d="M38.2067 8.45208C37.2703 7.51526 36.1585 6.7721 34.9349 6.26507C33.7112 5.75804 32.3996 5.49707 31.0751 5.49707C29.7505 5.49707 28.4389 5.75804 27.2152 6.26507C25.9916 6.7721 24.8798 7.51526 23.9434 8.45208L22.0001 10.3954L20.0567 8.45208C18.1653 6.56065 15.5999 5.49805 12.9251 5.49805C10.2502 5.49805 7.68482 6.56065 5.79339 8.45208C3.90195 10.3435 2.83936 12.9089 2.83936 15.5838C2.83936 18.2586 3.90195 20.824 5.79339 22.7154L7.73672 24.6588L22.0001 38.9221L36.2634 24.6588L38.2067 22.7154C39.1435 21.779 39.8867 20.6672 40.3937 19.4436C40.9008 18.2199 41.1617 16.9083 41.1617 15.5838C41.1617 14.2592 40.9008 12.9476 40.3937 11.7239C39.8867 10.5003 39.1435 9.38847 38.2067 8.45208Z" stroke="black" stroke-width="2.92" stroke-linecap="round" stroke-linejoin="round"/>
</svg>
